# Rhino

mtllib Opt3-Glass.mtl
usemtl _Translucent_Glass_Gray_1
v -0.26768466103837341 33.282937161470102 -44.329343902739971
v -0.26768466103837341 33.282937161470102 -44.329343902739971
v -8.0768513277050431 35.965437161470106 -2.3293439027399572
v -8.0768513277050431 35.965437161470106 -2.3293439027399572
v -8.0768513277050431 35.965437161470106 -2.3293439027399572
v -8.0768513277050431 35.965437161470106 -2.3293439027399572
v -8.0768513277050431 35.965437161470106 -2.3293439027399572
v -56.908517994371721 16.410437161470099 -44.329343902739971
v -56.908517994371721 16.410437161470099 -44.329343902739971
v 35.933148672294948 -88.239729505196564 -44.329343902739971
v 35.933148672294948 -88.239729505196564 -44.329343902739971
v 35.933148672294948 -88.239729505196564 -44.329343902739971
v 39.598982005628301 -87.147646171863229 0.2999060972600347
v 39.598982005628301 -87.147646171863229 0.2999060972600347
v 39.598982005628301 -87.147646171863229 0.2999060972600347
v 38.96731533896164 -87.335646171863232 -7.3840939027399628
v 38.96731533896164 -87.335646171863232 -7.3840939027399628
v 38.83898200562831 -87.373979505196544 -8.9504272360733026
v 38.83898200562831 -87.373979505196544 -8.9504272360733026
v 38.028148672294975 -87.615396171863225 -18.817177236073299
v 38.028148672294975 -87.615396171863225 -18.817177236073299
v 36.78898200562827 -87.984729505196569 -33.908927236073289
v 36.78898200562827 -87.984729505196569 -33.908927236073289
v -20.7076846610384 -105.11247950519656 -2.3293439027399572
v -20.7076846610384 -105.11247950519656 -2.3293439027399572
v -20.7076846610384 -105.11247950519656 -2.3293439027399572
v -20.7076846610384 -105.11247950519656 -2.3293439027399572
v -58.546017994371724 21.907103828136769 5.8575727639267043
v -58.546017994371724 21.907103828136769 5.8575727639267043
v -58.546017994371724 21.907103828136769 5.8575727639267043
v -20.7076846610384 -105.11247950519656 -44.329343902739971
v -20.7076846610384 -105.11247950519656 -44.329343902739971
v -23.437684661038389 -92.708979505196552 -14.329343902739957
v -23.437684661038389 -92.708979505196552 -14.329343902739957
v -23.437684661038389 -92.708979505196552 -14.329343902739957
v -53.562684661038375 8.4196038281367755 -14.329343902739957
v -53.562684661038375 8.4196038281367755 -14.329343902739957
v -53.562684661038375 8.4196038281367755 -14.329343902739957
v -82.310184661038363 -0.14372950519655703 -14.329343902739957
v -82.310184661038363 -0.14372950519655703 -14.329343902739957
v -18.344351327705056 -214.87097950519652 -14.329343902739957
v -18.344351327705056 -214.87097950519652 -14.329343902739957
v -8.7610179943717128 -212.01597950519655 -14.329343902739957
v -8.7610179943717128 -212.01597950519655 -14.329343902739957
v -8.7610179943717128 -212.01597950519655 -14.329343902739957
v -42.601017994371716 -98.417646171863225 -14.329343902739957
v -42.601017994371716 -98.417646171863225 -14.329343902739957
v -42.601017994371716 -98.417646171863225 -14.329343902739957
v -23.437684661038389 -92.708979505196552 -57.329318902739949
v -23.437684661038389 -92.708979505196552 -57.329318902739949
v -53.562684661038375 8.4196038281367755 -57.329318902739949
v -53.562684661038375 8.4196038281367755 -57.329318902739949
v -42.601017994371716 -98.417646171863225 -57.329318902739949
v -42.601017994371716 -98.417646171863225 -57.329318902739949
v -8.7610179943717128 -212.01597950519655 -57.329318902739949
v -8.7610179943717128 -212.01597950519655 -57.329318902739949
v -18.344351327705056 -214.87097950519652 -57.329318902739949
v -82.310184661038363 -0.14372950519655703 -57.329318902739949
vt 754 -384.7349853515625
vt 1234 -628.16802978515625
vt 664.4210205078125 121.54499816894531
vt 1282 -116.26999664306641
vt 1205.969970703125 74.885101318359375
vt -1443.8800048828125 -14.081100463867187
vt -1443.8800048828125 13.920900344848633
vt -34 -384.7349853515625
vt 1234 -504
vt -34 -628.16802978515625
vt -112.21399688720703 -431.37100219726562
vt 754 -504
vt -117.51799774169922 106.57700347900391
vt -347.34298706054687 727.6929931640625
vt 805.0050048828125 31.550500869750977
vt -116.60399627685547 13.956299781799316
vt 796.2230224609375 -60.657299041748047
vt -116.41799926757813 -4.923490047454834
vt 794.4329833984375 -79.4530029296875
vt -115.24600219726562 -123.85500335693359
vt 783.156982421875 -197.85499572753906
vt -113.4530029296875 -305.7659912109375
vt 765.90899658203125 -378.95498657226562
vt 45.971298217773438 -14.081100463867187
vt 45.971298217773438 13.920900344848633
vt -34 0
vt -34 0
vt -34 220.23300170898437
vt -1124.72998046875 642.948974609375
vt 1291.3599853515625 98.242996215820313
vt -34 -504
vt -34 -504
vt -60 -366.24600219726562
vt -366.24600219726562 516
vt -60 516
vt -60 900
vt 900 516
vt 60 516
vt -419.94900512695312 900
vt 419.94900512695312 516
vt -419.94900512695312 -1788.6300048828125
vt -419.94900512695312 516
vt -299.94900512695312 -1788.6300048828125
vt -1788.6300048828125 516
vt -299.94900512695312 516
vt -299.94900512695312 -366.24600219726562
vt -299.94900512695312 516
vt -366.24600219726562 516
vt -366.24600219726562 -2.3734900763544564E-12
vt -60 -2.1386000609302513E-12
vt 900 3.3011499783741627E-11
vt 60 3.301170101166484E-11
vt -299.94900512695312 1.0352699600368886E-11
vt -366.24600219726562 4.7008998256548029E-12
vt -1788.6300048828125 0
vt -299.94900512695312 -4.2584300669057384E-11
vt -419.94900512695312 -4.4460098796994529E-11
vt 419.94900512695312 4.3627199075579881E-11
vn 0.28459998965263367 -0.95537608861923218 0.079116307199001312
vn 0.94022125005722046 0.28008505702018738 0.19374305009841919
vn 0.28459998965263367 -0.95537608861923218 0.079116307199001312
vn 0.94022125005722046 0.28008505702018738 0.19374305009841919
vn 0.90483260154724121 0.41281086206436157 -0.10423596203327179
vn -0.03923918679356575 0.013278295285999775 0.9991416335105896
vn -0.14416798949241638 0.048785697668790817 -0.98834991455078125
vn 0.28459998965263367 -0.95537608861923218 0.079116307199001312
vn 0.95838016271591187 0.2854951024055481 0
vn 0.94022125005722046 0.28008505702018738 0.19374305009841919
vn 0.90483260154724121 0.41281086206436157 -0.10423596203327179
vn 0.2854951024055481 -0.95838016271591187 0
vn 0.90483260154724121 0.41281086206436157 -0.10423596203327179
vn -0.03923918679356575 0.013278295285999775 0.9991416335105896
vn 0.2854951024055481 -0.95838016271591187 0
vn 0.90483260154724121 0.41281086206436157 -0.10423596203327179
vn 0.2854951024055481 -0.95838016271591187 0
vn 0.90483260154724121 0.41281086206436157 -0.10423596203327179
vn 0.2854951024055481 -0.95838016271591187 0
vn 0.90483260154724121 0.41281086206436157 -0.10423596203327179
vn 0.2854951024055481 -0.95838016271591187 0
vn 0.90483260154724121 0.41281086206436157 -0.10423596203327179
vn 0.2854951024055481 -0.95838016271591187 0
vn -0.03923918679356575 0.013278295285999775 0.9991416335105896
vn -0.14416798949241638 0.048785697668790817 -0.98834991455078125
vn 0.95838016271591187 0.2854951024055481 0
vn 0.2854951024055481 -0.95838016271591187 0
vn 0.28459998965263367 -0.95537608861923218 0.079116307199001312
vn -0.14416798949241638 0.048785697668790817 -0.98834991455078125
vn 0.95838016271591187 0.2854951024055481 0
vn 0.95838016271591187 0.2854951024055481 0
vn 0.2854951024055481 -0.95838016271591187 0
vn 0 0 1
vn 0.95838016271591187 0.2854951024055481 0
vn 0.2854951024055481 -0.95838016271591187 0
vn 0 0 1
vn 0.95838016271591187 0.2854951024055481 0
vn -0.2854951024055481 0.95838016271591187 0
vn 0 0 1
vn -0.2854951024055481 0.95838016271591187 0
vn 0 0 1
vn 0.2854951024055481 -0.95838016271591187 0
vn 0 0 1
vn 0.95838016271591187 0.2854951024055481 0
vn 0.2854951024055481 -0.95838016271591187 0
vn 0 0 1
vn 0.2854951024055481 -0.95838016271591187 0
vn 0.95838016271591187 0.2854951024055481 0
vn 0.95838016271591187 0.2854951024055481 0
vn 0.2854951024055481 -0.95838016271591187 0
vn 0.95838016271591187 0.2854951024055481 0
vn -0.2854951024055481 0.95838016271591187 0
vn 0.2854951024055481 -0.95838016271591187 0
vn 0.95838016271591187 0.2854951024055481 0
vn 0.95838016271591187 0.2854951024055481 0
vn 0.2854951024055481 -0.95838016271591187 0
vn 0.2854951024055481 -0.95838016271591187 0
vn -0.2854951024055481 0.95838016271591187 0
f 1/1/1 3/3/3 8/8/8
f 4/4/4 10/10/10 2/2/2
f 11/11/11 5/5/5 22/22/22
f 5/5/5 13/13/13 16/16/16
f 16/16/16 18/18/18 5/5/5
f 18/18/18 20/20/20 5/5/5
f 20/20/20 22/22/22 5/5/5
f 14/14/14 6/6/6 24/24/24
f 7/7/7 25/25/25 29/29/29
f 9/9/9 30/30/30 26/26/26 31/31/31
f 8/8/8 3/3/3 28/28/28
f 17/17/17 15/15/15 27/27/27
f 27/27/27 32/32/32 21/21/21
f 32/32/32 12/12/12 23/23/23
f 32/32/32 23/23/23 21/21/21
f 19/19/19 17/17/17 27/27/27
f 19/19/19 27/27/27 21/21/21
f 33/33/33 36/36/36 46/46/46
f 36/36/36 39/39/39 46/46/46
f 39/39/39 41/41/41 43/43/43
f 39/39/39 43/43/43 46/46/46
f 34/34/34 49/49/49 51/51/51 37/37/37
f 50/50/50 35/35/35 47/47/47 53/53/53
f 54/54/54 48/48/48 44/44/44 55/55/55
f 57/57/57 56/56/56 45/45/45 42/42/42
f 52/52/52 58/58/58 40/40/40 38/38/38
