# Rhino

mtllib Site9-Glass3.mtl
usemtl _Translucent_Glass_Gray_1
v -47.019958726730238 -83.565705844796923 -26.921073201712858
v -22.87608799072359 -164.61623611304304 -26.921073201712858
v -45.759518737394956 -171.43316618576984 -26.921073201712858
v -69.902524380752766 -90.382635917523714 -26.921073201712858
v -47.019958726730238 -83.565705844796923 -11.349405522895182
v -47.019958726730238 -83.565705844796923 -11.349405522895182
v -22.87608799072359 -164.61623611304304 -11.349405522895182
v -22.87608799072359 -164.61623611304304 -11.349405522895182
v -69.902524380752766 -90.382635917523714 -11.349405522895182
v -69.902524380752766 -90.382635917523714 -11.349405522895182
v -45.759518737394956 -171.43316618576984 -11.349405522895182
v -45.759518737394956 -171.43316618576984 -11.349405522895182
vt 54.04119873046875 -192
vt 54.04119873046875 -192
vt -221.95899963378906 -192
vt -221.95899963378906 -192
vt 54.04119873046875 977.54400634765625
vt 54.04119873046875 -12
vt 54.04119873046875 -1.2732899803968856E-11
vt 54.04119873046875 -12
vt -221.95899963378906 977.54400634765625
vt -221.95899963378906 -12
vt -221.95899963378906 -3.6379801081343199E-12
vt -221.95899963378906 -12
vn 0.28549507260322571 -0.95838016271591187 0
vn 0.28549507260322571 -0.95838016271591187 0
vn 0.28549507260322571 -0.95838016271591187 0
vn 0.28549507260322571 -0.95838016271591187 0
vn 0 0 1
vn 0.28549507260322571 -0.95838016271591187 0
vn 0 0 1
vn 0.28549507260322571 -0.95838016271591187 0
vn 0 0 1
vn 0.28549507260322571 -0.95838016271591187 0
vn 0 0 1
vn 0.28549507260322571 -0.95838016271591187 0
f 4/4/4 1/1/1 6/6/6 10/10/10
f 9/9/9 11/11/11 7/7/7 5/5/5
f 3/3/3 2/2/2 8/8/8 12/12/12
usemtl _Translucent_Glass_Gray_1
v 21.260938952236302 -95.720257560762946 -26.921073201712858
v 12.369516707631192 -65.874561176362391 -26.921073201712858
v 12.369516707631192 -65.874561176362391 -26.921073201712858
v -2.2488188721831648 -70.225977199943088 -26.921073201712858
v -47.019958726730238 -83.565705844796923 -26.921073201712858
v -22.87608799072359 -164.61623611304304 -26.921073201712858
v -2.2488188721831648 -70.225977199943088 -45.607048463514602
v 21.260938952236302 -95.720257560762946 -45.607048463514602
v 12.369516707631192 -65.874561176362391 -45.607048463514602
v 12.369516707631192 -65.874561176362391 -45.607048463514602
v -69.902524380752766 -90.382635917523714 -26.921073201712858
v -45.759518737394956 -171.43316618576984 -26.921073201712858
vt 617.54400634765625 -12
vt 977.54400634765625 -12
vt 770.36102294921875 -12
vt 594.041015625 -12
vt 54.04119873046875 977.54400634765625
vt 54.04119873046875 -1.2732899803968856E-11
vt 594.041015625 -228
vt 617.54400634765625 -228
vt 977.54400634765625 -228
vt 770.36102294921875 -228
vt -221.95899963378906 977.54400634765625
vt -221.95899963378906 -3.6379801081343199E-12
vn 0.95838016271591187 0.28549507260322571 0
vn 0.95838016271591187 0.28549507260322571 0
vn 0.28549507260322571 -0.95838016271591187 0
vn 0.28549507260322571 -0.95838016271591187 0
vn 0 0 1
vn 0 0 1
vn 0.28549507260322571 -0.95838016271591187 0
vn 0.95838016271591187 0.28549507260322571 0
vn 0.95838016271591187 0.28549507260322571 0
vn 0.28549507260322571 -0.95838016271591187 0
vn 0 0 1
vn 0 0 1
f 14/14/14 13/13/13 20/20/20 21/21/21
f 22/22/22 15/15/15 16/16/16 19/19/19
f 23/23/23 24/24/24 18/18/18 17/17/17
usemtl _Translucent_Glass_Gray_1
v -45.759518737394956 -171.43316618576984 4.222262155922488
v -45.759518737394956 -171.43316618576984 4.222262155922488
v -47.019958726730238 -83.565705844796923 -11.349405522895182
v -22.87608799072359 -164.61623611304304 -11.349405522895182
v -45.759518737394956 -171.43316618576984 -11.349405522895182
v -69.902524380752766 -90.382635917523714 -11.349405522895182
v -47.019958726730238 -83.565705844796923 4.222262155922488
v -47.019958726730238 -83.565705844796923 4.222262155922488
v -22.87608799072359 -164.61623611304304 4.222262155922488
v -22.87608799072359 -164.61623611304304 4.222262155922488
v -69.902524380752766 -90.382635917523714 4.222262155922488
v -69.902524380752766 -90.382635917523714 4.222262155922488
vt -221.95899963378906 -3.6379801081343199E-12
vt -221.95899963378906 -12
vt 54.04119873046875 -192
vt 54.04119873046875 -192
vt -221.95899963378906 -192
vt -221.95899963378906 -192
vt 54.04119873046875 977.54400634765625
vt 54.04119873046875 -12
vt 54.04119873046875 -1.2732899803968856E-11
vt 54.04119873046875 -12
vt -221.95899963378906 977.54400634765625
vt -221.95899963378906 -12
vn 0 0 1
vn 0.28549507260322571 -0.95838016271591187 0
vn 0.28549507260322571 -0.95838016271591187 0
vn 0.28549507260322571 -0.95838016271591187 0
vn 0.28549507260322571 -0.95838016271591187 0
vn 0.28549507260322571 -0.95838016271591187 0
vn 0 0 1
vn 0.28549507260322571 -0.95838016271591187 0
vn 0 0 1
vn 0.28549507260322571 -0.95838016271591187 0
vn 0 0 1
vn 0.28549507260322571 -0.95838016271591187 0
f 30/30/30 27/27/27 32/32/32 36/36/36
f 35/35/35 25/25/25 33/33/33 31/31/31
f 29/29/29 28/28/28 34/34/34 26/26/26
usemtl _Translucent_Glass_Gray_1
v 14.34192794694809 -28.078663349276525 2.3677630446401849
v 14.34192794694809 -28.078663349276525 2.3677630446401849
v -21.853548479814435 -50.173129600221273 2.3677630446401849
v -21.853548479814435 -50.173129600221273 2.3677630446401849
v -27.29065577766869 -77.691726759287235 2.3677630446401849
v -27.29065577766869 -77.691726759287235 2.3677630446401849
v 12.369516707631192 -65.874561176362391 2.3677630446401849
v 12.369516707631192 -65.874561176362391 2.3677630446401849
v -21.853548479814435 -50.173129600221273 -45.607048463514602
v -27.29065577766869 -77.691726759287235 -45.607048463514602
v 12.369516707631192 -65.874561176362391 -45.607048463514602
v 14.34192794694809 -28.078663349276525 -45.607048463514602
vt 624.93701171875 412.20999145507812
vt 597.76898193359375 5.1712301975259667E-12
vt 151.03999328613281 286.885009765625
vt -324.21600341796875 3.5242900178061864E-12
vt -5.9117198983327235E-12 -7.2759602162686399E-12
vt 9.1922303102620617E-12 3.5242900178061864E-12
vt 478.35501098632812 -4.5474700394176892E-12
vt 160.27200317382812 0
vt -324.21600341796875 -554.56201171875
vt 9.1922303102620617E-12 -554.56201171875
vt 160.27200317382812 -554.56201171875
vt 597.76898193359375 -554.56201171875
vn 0 0 1
vn 0.99864131212234497 -0.052110616117715836 0
vn 0 0 1
vn -0.98103117942810059 0.19385001063346863 0
vn 0 0 1
vn -0.98103117942810059 0.19385001063346863 0
vn 0 0 1
vn 0.99864131212234497 -0.052110616117715836 0
vn -0.98103117942810059 0.19385001063346863 0
vn -0.98103117942810059 0.19385001063346863 0
vn 0.99864131212234497 -0.052110616117715836 0
vn 0.99864131212234497 -0.052110616117715836 0
f 37/37/37 39/39/39 41/41/41 43/43/43
f 40/40/40 45/45/45 46/46/46 42/42/42
f 47/47/47 48/48/48 38/38/38 44/44/44
usemtl _Translucent_Glass_Gray_1
v -11.692170226737289 46.673992435536363 -45.607048463514602
v -11.692170226737289 46.673992435536363 -45.607048463514602
v -56.998802430905926 50.584211208217312 -45.607048463514602
v -56.998802430905926 50.584211208217312 -45.607048463514602
v -56.998802430905926 50.584211208217312 -32.111629094652081
v -56.998802430905926 50.584211208217312 -32.111629094652081
v -56.998802430905926 50.584211208217312 -32.111629094652081
v -11.692170226737289 46.673992435536363 -32.111629094652081
v -11.692170226737289 46.673992435536363 -32.111629094652081
v -11.692170226737289 46.673992435536363 -32.111629094652081
v -56.746195377449567 22.122663061933935 -45.607048463514602
v -56.746195377449567 22.122663061933935 -45.607048463514602
v -56.746195377449567 22.122663061933935 -32.111629094652081
v -56.746195377449567 22.122663061933935 -32.111629094652081
v -56.746195377449567 22.122663061933935 -32.111629094652081
v -21.853548479814435 -50.173129600221273 -45.607048463514602
v -21.853548479814435 -50.173129600221273 -45.607048463514602
v -21.853548479814435 -50.173129600221273 -32.111629094652081
v -21.853548479814435 -50.173129600221273 -32.111629094652081
v -21.853548479814435 -50.173129600221273 -32.111629094652081
v -17.189834010008781 -47.326974785592796 -45.607048463514602
v -17.189834010008781 -47.326974785592796 -45.607048463514602
v -17.189834010008781 -47.326974785592796 -32.111629094652081
v -17.189834010008781 -47.326974785592796 -32.111629094652081
v -45.908314672992674 36.180418605310976 -32.111629094652081
v -45.908314672992674 36.180418605310976 -45.607048463514602
v -14.361846141005572 39.363959552980319 -32.111629094652081
v 3.3786088084116273 17.087823845782793 -32.111629094652081
v 10.49745621557804 -30.423064427587576 -32.111629094652081
v 10.49745621557804 -30.423064427587576 -32.111629094652081
v 14.34192794694809 -28.078663349276525 -32.111629094652081
v 14.34192794694809 -28.078663349276525 -32.111629094652081
v 14.34192794694809 -28.078663349276525 -32.111629094652081
v 16.165543250667724 6.871079663180609 -32.111629094652081
v 16.165543250667724 6.871079663180609 -32.111629094652081
v 16.165543250667724 6.871079663180609 -32.111629094652081
v 10.49745621557804 -30.423064427587576 -45.607048463514602
v 10.49745621557804 -30.423064427587576 -45.607048463514602
v 3.3786088084116273 17.087823845782793 -45.607048463514602
v -14.361846141005572 39.363959552980319 -45.607048463514602
v 14.34192794694809 -28.078663349276525 -45.607048463514602
v 14.34192794694809 -28.078663349276525 -45.607048463514602
v 16.165543250667724 6.871079663180609 -45.607048463514602
v 16.165543250667724 6.871079663180609 -45.607048463514602
vt -158.41299438476562 0
vt 803.13800048828125 1.7117099838231953E-12
vt 367.25799560546875 0
vt -1209.22998046875 3.0105599003321659E-12
vt 367.25799560546875 156
vt -1209.22998046875 156
vt 91.127197265625 1232.199951171875
vt -158.41299438476562 156
vt 580.14801025390625 1039.3599853515625
vt 803.13800048828125 156
vt -880.2230224609375 2.3284399582046422E-12
vt -904.34002685546875 1.5484099462684253E-12
vt -880.2230224609375 156
vt -904.34002685546875 156
vt -7.2361999205183825E-12 916.06201171875
vt 23.594999313354492 0
vt 143.05099487304687 0
vt 23.594999313354492 156
vt 143.05099487304687 156
vt 147.96800231933594 -1.160059982102668E-11
vt 206.21400451660156 1.7766800400678684E-12
vt 209.03199768066406 16.148700714111328
vt 206.21400451660156 156
vt 209.03199768066406 16.148700714111328
vt 166.47000122070313 1036.0899658203125
vt 166.47000122070313 1036.0899658203125
vt 526.45599365234375 967.21099853515625
vt 649.469970703125 661.885009765625
vt 571.531982421875 112.01399993896484
vt 581.176025390625 156
vt 621.86602783203125 125.32499694824219
vt 633.239990234375 156
vt 326.43600463867187 156
vt 757.39599609375 506.45199584960937
vt 730.9439697265625 156
vt 241.52799987792969 156
vt 571.531982421875 112.01399993896484
vt 581.176025390625 2.4303900905686682E-12
vt 649.469970703125 661.885009765625
vt 526.45599365234375 967.21099853515625
vt 633.239990234375 1.7056399695403179E-12
vt 326.43600463867187 0
vt 730.9439697265625 3.5680900508511249E-12
vt 241.52799987792969 1.7685600163172555E-12
vn 0.085990607738494873 0.99629592895507813 0
vn 0.81929385662078857 0.57337385416030884 0
vn 0.085990607738494873 0.99629592895507813 0
vn -0.99996060132980347 -0.0088790552690625191 0
vn 0.085990607738494873 0.99629592895507813 0
vn -0.99996060132980347 -0.0088790552690625191 0
vn 0 0 1
vn 0.085990607738494873 0.99629592895507813 0
vn 0 0 1
vn 0.81929385662078857 0.57337385416030884 0
vn -0.99996060132980347 -0.0088790552690625191 0
vn -0.90059220790863037 -0.43466499447822571 0
vn -0.99996060132980347 -0.0088790552690625191 0
vn -0.90059220790863037 -0.43466499447822571 0
vn 0 0 1
vn -0.90059220790863037 -0.43466499447822571 0
vn 0.52103203535079956 -0.85353714227676392 0
vn -0.90059220790863037 -0.43466499447822571 0
vn 0.52103203535079956 -0.85353714227676392 0
vn 0 0 1
vn 0.52103203535079956 -0.85353714227676392 0
vn 0 0 1
vn 0.52103203535079956 -0.85353714227676392 0
vn 0 0 1
vn 0 0 1
vn 0 0 1
vn 0 0 1
vn 0 0 1
vn 0 0 1
vn 0.52103203535079956 -0.85353714227676392 0
vn 0 0 1
vn 0.52103203535079956 -0.85353714227676392 0
vn 0.99864131212234497 -0.052110616117715836 0
vn 0 0 1
vn 0.99864131212234497 -0.052110616117715836 0
vn 0.81929385662078857 0.57337385416030884 0
vn 0 0 1
vn 0.52103203535079956 -0.85353714227676392 0
vn 0 0 1
vn 0 0 1
vn 0.52103203535079956 -0.85353714227676392 0
vn 0.99864131212234497 -0.052110616117715836 0
vn 0.99864131212234497 -0.052110616117715836 0
vn 0.81929385662078857 0.57337385416030884 0
f 49/49/49 51/51/51 53/53/53 56/56/56
f 52/52/52 59/59/59 61/61/61 54/54/54
f 60/60/60 64/64/64 66/66/66 62/62/62
f 65/65/65 69/69/69 71/71/71 67/67/67
f 72/72/72 73/73/73 63/63/63
f 73/73/73 75/75/75 57/57/57
f 75/75/75 76/76/76 57/57/57
f 76/76/76 77/77/77 82/82/82
f 77/77/77 79/79/79 82/82/82
f 82/82/82 57/57/57 76/76/76
f 57/57/57 55/55/55 73/73/73
f 55/55/55 63/63/63 73/73/73
f 63/63/63 68/68/68 72/72/72
f 70/70/70 85/85/85 87/87/87
f 88/88/88 74/74/74 70/70/70
f 88/88/88 70/70/70 87/87/87
f 78/78/78 86/86/86 89/89/89 80/80/80
f 90/90/90 91/91/91 83/83/83 81/81/81
f 92/92/92 50/50/50 58/58/58 84/84/84
usemtl _Translucent_Glass_Gray_1
v -47.019958726730238 -83.565705844796923 4.222262155922488
v -22.87608799072359 -164.61623611304304 4.222262155922488
v -45.759518737394956 -171.43316618576984 4.222262155922488
v -69.902524380752766 -90.382635917523714 4.222262155922488
v -47.019958726730238 -83.565705844796923 18.755818656152311
v -47.019958726730238 -83.565705844796923 18.755818656152311
v -22.87608799072359 -164.61623611304304 18.755818656152311
v -22.87608799072359 -164.61623611304304 18.755818656152311
v -69.902524380752766 -90.382635917523714 18.755818656152311
v -69.902524380752766 -90.382635917523714 18.755818656152311
v -45.759518737394956 -171.43316618576984 18.755818656152311
v -45.759518737394956 -171.43316618576984 18.755818656152311
vt 54.04119873046875 -180
vt 54.04119873046875 -180
vt -221.95899963378906 -180
vt -221.95899963378906 -180
vt 54.04119873046875 977.54400634765625
vt 54.04119873046875 -12
vt 54.04119873046875 -12
vt 54.04119873046875 -1.2732899803968856E-11
vt -221.95899963378906 977.54400634765625
vt -221.95899963378906 -12
vt -221.95899963378906 -12
vt -221.95899963378906 -1.81899005406716E-12
vn 0.28549507260322571 -0.95838016271591187 0
vn 0.28549507260322571 -0.95838016271591187 0
vn 0.28549507260322571 -0.95838016271591187 0
vn 0.28549507260322571 -0.95838016271591187 0
vn 0 0 1
vn 0.28549507260322571 -0.95838016271591187 0
vn 0.28549507260322571 -0.95838016271591187 0
vn 0 0 1
vn 0 0 1
vn 0.28549507260322571 -0.95838016271591187 0
vn 0.28549507260322571 -0.95838016271591187 0
vn 0 0 1
f 96/96/96 93/93/93 98/98/98 102/102/102
f 101/101/101 104/104/104 100/100/100 97/97/97
f 95/95/95 94/94/94 99/99/99 103/103/103
