# Rhino

mtllib Site9-Glass2.mtl
usemtl Translucent_Glass_Blue
v 19.709827832896281 -24.799962210236771 -32.111629094652081
v 19.709827832896281 -24.799962210236771 -32.111629094652081
v 19.709827832896281 -24.799962210236771 -32.111629094652081
v -26.305315250659078 -52.88952051752625 -32.111629094652081
v -26.305315250659078 -52.88952051752625 -32.111629094652081
v -26.305315250659078 -52.88952051752625 -32.111629094652081
v -70.399952653826404 38.472914124692451 -32.111629094652081
v -70.399952653826404 38.472914124692451 -32.111629094652081
v -70.399952653826404 38.472914124692451 -32.111629094652081
v -60.197915046254366 62.427329570606815 -32.111629094652081
v -60.197915046254366 62.427329570606815 -32.111629094652081
v -60.197915046254366 62.427329570606815 -32.111629094652081
v -8.6072498410335356 51.319539959717062 -32.111629094652081
v -8.6072498410335356 51.319539959717062 -32.111629094652081
v -8.6072498410335356 51.319539959717062 -32.111629094652081
v 21.441743315840085 8.3763408721330563 -32.111629094652081
v 21.441743315840085 8.3763408721330563 -32.111629094652081
v 21.441743315840085 8.3763408721330563 -32.111629094652081
v -19.641506576773736 -48.823585068057213 -26.921073201712858
v -26.305315250659078 -52.88952051752625 -11.349405522895182
v -26.305315250659078 -52.88952051752625 -11.349405522895182
v -26.305315250659078 -52.88952051752625 -11.349405522895182
v -19.641506576773736 -48.823585068057213 -16.539961415834412
v 19.709827832896281 -24.799962210236771 -11.349405522895182
v 19.709827832896281 -24.799962210236771 -11.349405522895182
v 19.709827832896281 -24.799962210236771 -11.349405522895182
v -10.475849962491793 -43.226435630171011 -16.539961415834412
v -10.475849962491793 -43.226435630171011 -26.921073201712858
v 21.441743315840085 8.3763408721330563 -11.349405522895182
v 21.441743315840085 8.3763408721330563 -11.349405522895182
v 21.441743315840085 8.3763408721330563 -11.349405522895182
v -60.197915046254366 62.427329570606815 -11.349405522895182
v -60.197915046254366 62.427329570606815 -11.349405522895182
v -60.197915046254366 62.427329570606815 -11.349405522895182
v -70.399952653826404 38.472914124692451 -11.349405522895182
v -70.399952653826404 38.472914124692451 -11.349405522895182
v -70.399952653826404 38.472914124692451 -11.349405522895182
v -8.6072498410335356 51.319539959717062 -11.349405522895182
v -8.6072498410335356 51.319539959717062 -11.349405522895182
v -8.6072498410335356 51.319539959717062 -11.349405522895182
vt -789.468017578125 159.3280029296875
vt 803.96502685546875 -240
vt 414.62899780273437 -240
vt -186.99099731445312 -9.4772896128136885E-12
vt 180.77699279785156 -240
vt 29.817600250244141 -240
vt 6.8108999343174936E-12 1157.6500244140625
vt -891.27301025390625 -240
vt -1142.8399658203125 -240
vt -192.08599853515625 1389.3900146484375
vt -1192.27001953125 -240
vt 499.66598510742187 -240
vt -726.96002197265625 1096.06005859375
vt -110.36100006103516 -240
vt 810.60400390625 -240
vt -918.155029296875 521.2139892578125
vt 798.71502685546875 -240
vt 204.79899597167969 -240
vt 271.02398681640625 -180
vt 180.77699279785156 0
vt 186.99099731445312 -9.0949496198144963E-12
vt 29.817600250244141 0
vt 271.02398681640625 -60
vt 803.96502685546875 8.4279302287049163E-12
vt 414.62899780273437 6.2871899526861785E-12
vt 789.468017578125 159.3280029296875
vt 395.14898681640625 -60
vt 395.14898681640625 -180
vt 798.71502685546875 8.106179789912904E-12
vt 918.155029296875 521.2139892578125
vt 204.79899597167969 5.9721099593401661E-12
vt 192.08599853515625 1389.3900146484375
vt -1192.27001953125 9.394830399744869E-12
vt 499.66598510742187 2.104110071940446E-12
vt -5.9117198983327235E-12 1157.6500244140625
vt -891.27301025390625 7.0074098433570153E-12
vt -1142.8399658203125 4.8978399461163669E-12
vt 726.96002197265625 1096.06005859375
vt -110.36100006103516 -3.9212899420604241E-12
vt 810.60400390625 -2.2133499460313955E-12
vn 0 0 -1
vn 0.52103203535079956 -0.85353714227676392 0
vn 0.99864131212234497 -0.052110616117715836 0
vn 0 0 -1
vn 0.52103203535079956 -0.85353714227676392 0
vn -0.90059220790863037 -0.43466499447822571 0
vn 0 0 -1
vn -0.92004823684692383 0.39180508255958557 0
vn -0.90059220790863037 -0.43466499447822571 0
vn 0 0 -1
vn -0.92004823684692383 0.39180508255958557 0
vn 0.21051494777202606 0.97759062051773071 0
vn 0 0 -1
vn 0.21051494777202606 0.97759062051773071 0
vn 0.81929385662078857 0.57337385416030884 0
vn 0 0 -1
vn 0.99864131212234497 -0.052110616117715836 0
vn 0.81929385662078857 0.57337385416030884 0
vn 0.52103203535079956 -0.85353714227676392 0
vn 0.52103203535079956 -0.85353714227676392 0
vn 0 0 1
vn -0.90059220790863037 -0.43466499447822571 0
vn 0.52103203535079956 -0.85353714227676392 0
vn 0.52103203535079956 -0.85353714227676392 0
vn 0.99864131212234497 -0.052110616117715836 0
vn 0 0 1
vn 0.52103203535079956 -0.85353714227676392 0
vn 0.52103203535079956 -0.85353714227676392 0
vn 0.99864131212234497 -0.052110616117715836 0
vn 0 0 1
vn 0.81929385662078857 0.57337385416030884 0
vn 0 0 1
vn -0.92004823684692383 0.39180508255958557 0
vn 0.21051494777202606 0.97759062051773071 0
vn 0 0 1
vn -0.92004823684692383 0.39180508255958557 0
vn -0.90059220790863037 -0.43466499447822571 0
vn 0 0 1
vn 0.21051494777202606 0.97759062051773071 0
vn 0.81929385662078857 0.57337385416030884 0
f 1/1/1 4/4/4 16/16/16
f 4/4/4 7/7/7 16/16/16
f 10/10/10 13/13/13 16/16/16
f 10/10/10 16/16/16 7/7/7
f 19/19/19 5/5/5 2/2/2
f 5/5/5 19/19/19 20/20/20
f 20/20/20 19/19/19 23/23/23
f 23/23/23 24/24/24 20/20/20
f 27/27/27 24/24/24 23/23/23
f 28/28/28 24/24/24 27/27/27
f 24/24/24 28/28/28 2/2/2
f 19/19/19 2/2/2 28/28/28
f 29/29/29 25/25/25 3/3/3 17/17/17
f 32/32/32 35/35/35 38/38/38
f 35/35/35 21/21/21 30/30/30
f 21/21/21 26/26/26 30/30/30
f 30/30/30 38/38/38 35/35/35
f 36/36/36 33/33/33 11/11/11 8/8/8
f 14/14/14 12/12/12 34/34/34 39/39/39
f 40/40/40 31/31/31 18/18/18 15/15/15
f 22/22/22 37/37/37 9/9/9 6/6/6
usemtl Translucent_Glass_Blue
v -15.059110815957411 -46.029335812358028 -11.349405522895182
v -15.059110815957411 -46.029335812358028 -11.349405522895182
v -26.305315250659078 -52.88952051752625 -11.349405522895182
v -26.305315250659078 -52.88952051752625 -11.349405522895182
v -26.305315250659078 -52.88952051752625 -11.349405522895182
v -70.399952653826404 38.472914124692451 -11.349405522895182
v -70.399952653826404 38.472914124692451 -11.349405522895182
v -70.399952653826404 38.472914124692451 -11.349405522895182
v -60.197915046254366 62.427329570606815 -11.349405522895182
v -60.197915046254366 62.427329570606815 -11.349405522895182
v -60.197915046254366 62.427329570606815 -11.349405522895182
v -8.6072498410335356 51.319539959717062 -11.349405522895182
v -8.6072498410335356 51.319539959717062 -11.349405522895182
v -8.6072498410335356 51.319539959717062 -11.349405522895182
v 21.441743315840085 8.3763408721330563 -11.349405522895182
v 21.441743315840085 8.3763408721330563 -11.349405522895182
v 21.441743315840085 8.3763408721330563 -11.349405522895182
v 19.709827832896281 -24.799962210236771 -11.349405522895182
v 19.709827832896281 -24.799962210236771 -11.349405522895182
v 19.709827832896281 -24.799962210236771 -11.349405522895182
v -5.8934542016754676 -40.43218637447211 -11.349405522895182
v -5.8934542016754676 -40.43218637447211 -11.349405522895182
v -15.059110815957411 -46.029335812358028 1.1079286201589582
v -5.8934542016754676 -40.43218637447211 1.1079286201589582
v 19.709827832896281 -24.799962210236771 6.2984845130981739
v 19.709827832896281 -24.799962210236771 6.2984845130981739
v 19.709827832896281 -24.799962210236771 6.2984845130981739
v -26.305315250659078 -52.88952051752625 10.450929227449555
v -26.305315250659078 -52.88952051752625 10.450929227449555
v -26.305315250659078 -52.88952051752625 10.450929227449555
v -26.305315250659078 -52.88952051752625 10.450929227449555
v 21.441743315840085 8.3763408721330563 6.6914961034585598
v 21.441743315840085 8.3763408721330563 6.6914961034585598
v 21.441743315840085 8.3763408721330563 6.6914961034585598
v -8.6072498410335356 51.319539959717062 10.450929227449555
v -8.6072498410335356 51.319539959717062 10.450929227449555
v -8.6072498410335356 51.319539959717062 10.450929227449555
v -8.6072498410335356 51.319539959717062 10.450929227449555
v -60.197915046254366 62.427329570606815 6.2984845130981739
v -60.197915046254366 62.427329570606815 6.2984845130981739
v -60.197915046254366 62.427329570606815 6.2984845130981739
v -70.399952653826404 38.472914124692451 5.8222510099210041
v -70.399952653826404 38.472914124692451 5.8222510099210041
v -70.399952653826404 38.472914124692451 5.8222510099210041
v -25.385721764959726 -47.474040535892811 10.450929227449555
v -25.385721764959726 -47.474040535892811 10.450929227449555
v -25.108027024687544 -45.839015429617149 10.450929227449555
v -25.108027024687544 -45.839015429617149 10.450929227449555
v -29.492316568923343 -36.755542616973486 9.9906134290107254
v -65.852160598962655 38.585376169039435 6.1739111716676298
v -57.732400997108016 57.652018149102659 6.5529082611170715
v -9.3036494233365374 47.21900080429495 10.450929227449555
v -9.3036494233365374 47.21900080429495 10.450929227449555
v 17.240853413154582 7.1565602372924957 7.0935911666315761
v -9.5943205533408218 45.50611735962508 10.450929227449555
v -9.5943205533408218 45.50611735962508 10.450929227449555
v 15.69925831295177 -22.395004646508369 6.7434881716528334
vt -334.239013671875 38.940498352050781
vt 333.08700561523437 -180
vt -186.99099731445312 -7.6481199845490622E-12
vt 180.77699279785156 -180
vt 29.817600250244141 -180
vt 7.6050103714475625E-12 1157.6500244140625
vt -891.27301025390625 -180
vt -1142.8399658203125 -180
vt 499.66598510742187 -180
vt -192.08599853515625 1389.3900146484375
vt -1192.27001953125 -180
vt 810.60400390625 -180
vt -110.36100006103516 -180
vt -726.96002197265625 1096.06005859375
vt 798.71502685546875 -180
vt 204.79899597167969 -180
vt -918.155029296875 521.2139892578125
vt 414.62899780273437 -180
vt -789.468017578125 159.3280029296875
vt 803.96502685546875 -180
vt -454.239013671875 70.675102233886719
vt 457.21200561523437 -180
vt 333.08700561523437 -36
vt 457.21200561523437 -36
vt 414.62899780273437 24
vt 803.96502685546875 24
vt 491.81298828125 -632.04302978515625
vt 180.77699279785156 72
vt 82.636802673339844 -159.55799865722656
vt -82.636802673339844 172.87600708007812
vt 29.817600250244141 72
vt 798.71502685546875 28.543100357055664
vt 204.79899597167969 28.543100357055664
vt 873.31500244140625 -587.322998046875
vt 810.60400390625 72
vt -110.36100006103516 72
vt 1304.47998046875 -159.55799865722656
vt -1304.47998046875 172.87600708007812
vt 499.66598510742187 24
vt -1331.239990234375 -438.45098876953125
vt -1192.27001953125 24
vt -1038.469970703125 -508.5679931640625
vt -891.27301025390625 18.494600296020508
vt -1142.8399658203125 18.494600296020508
vt 146.13400268554687 -159.55799865722656
vt -146.13400268554687 172.87600708007812
vt 165.322998046875 -159.55799865722656
vt -165.322998046875 172.87600708007812
vt -260.37799072265625 105.10800170898437
vt -1048.5400390625 -456.79800415039062
vt -1281.550048828125 -400.99301147460938
vt 1256.43994140625 -159.55799865722656
vt -1256.43994140625 172.87600708007812
vt 851.27001953125 -541.5780029296875
vt 1236.3299560546875 -159.55799865722656
vt -1236.3299560546875 172.87600708007812
vt 511.4630126953125 -581.4110107421875
vn 0 0 -1
vn 0.52103203535079956 -0.85353714227676392 0
vn 0 0 -1
vn 0.52103203535079956 -0.85353714227676392 0
vn -0.90059220790863037 -0.43466499447822571 0
vn 0 0 -1
vn -0.92004823684692383 0.39180508255958557 0
vn -0.90059220790863037 -0.43466499447822571 0
vn 0.21051494777202606 0.97759062051773071 0
vn 0 0 -1
vn -0.92004823684692383 0.39180508255958557 0
vn 0.81929385662078857 0.57337385416030884 0
vn 0.21051494777202606 0.97759062051773071 0
vn 0 0 -1
vn 0.99864131212234497 -0.052110616117715836 0
vn 0.81929385662078857 0.57337385416030884 0
vn 0 0 -1
vn 0.99864131212234497 -0.052110616117715836 0
vn 0 0 -1
vn 0.52103203535079956 -0.85353714227676392 0
vn 0 0 -1
vn 0.52103203535079956 -0.85353714227676392 0
vn 0.52103203535079956 -0.85353714227676392 0
vn 0.52103203535079956 -0.85353714227676392 0
vn 0.99864131212234497 -0.052110616117715836 0
vn 0.52103203535079956 -0.85353714227676392 0
vn 0.10015701502561569 -0.01700960099697113 0.99482625722885132
vn 0.52103203535079956 -0.85353714227676392 0
vn 0.10015701502561569 -0.01700960099697113 0.99482625722885132
vn -0.077409274876117706 0.013146396726369858 0.99691271781921387
vn -0.90059220790863037 -0.43466499447822571 0
vn 0.99864131212234497 -0.052110616117715836 0
vn 0.81929385662078857 0.57337385416030884 0
vn 0.10015701502561569 -0.01700960099697113 0.99482625722885132
vn 0.81929385662078857 0.57337385416030884 0
vn 0.21051494777202606 0.97759062051773071 0
vn 0.10015701502561569 -0.01700960099697113 0.99482625722885132
vn -0.077409274876117706 0.013146396726369858 0.99691271781921387
vn 0.21051494777202606 0.97759062051773071 0
vn -0.077409274876117706 0.013146396726369858 0.99691271781921387
vn -0.92004823684692383 0.39180508255958557 0
vn -0.077409274876117706 0.013146396726369858 0.99691271781921387
vn -0.92004823684692383 0.39180508255958557 0
vn -0.90059220790863037 -0.43466499447822571 0
vn 0.10015701502561569 -0.01700960099697113 0.99482625722885132
vn -0.077409274876117706 0.013146396726369858 0.99691271781921387
vn 0.10015701502561569 -0.01700960099697113 0.99482625722885132
vn -0.077409274876117706 0.013146396726369858 0.99691271781921387
vn -0.077409274876117706 0.013146396726369858 0.99691271781921387
vn -0.077409274876117706 0.013146396726369858 0.99691271781921387
vn -0.077409274876117706 0.013146396726369858 0.99691271781921387
vn 0.10015701502561569 -0.01700960099697113 0.99482625722885132
vn -0.077409274876117706 0.013146396726369858 0.99691271781921387
vn 0.10015701502561569 -0.01700960099697113 0.99482625722885132
vn 0.10015701502561569 -0.01700960099697113 0.99482625722885132
vn -0.077409274876117706 0.013146396726369858 0.99691271781921387
vn 0.10015701502561569 -0.01700960099697113 0.99482625722885132
f 41/41/41 43/43/43 46/46/46
f 46/46/46 50/50/50 54/54/54
f 54/54/54 57/57/57 61/61/61
f 57/57/57 59/59/59 61/61/61
f 61/61/61 41/41/41 46/46/46
f 61/61/61 46/46/46 54/54/54
f 44/44/44 42/42/42 63/63/63
f 63/63/63 64/64/64 68/68/68
f 64/64/64 62/62/62 60/60/60
f 60/60/60 66/66/66 64/64/64
f 66/66/66 68/68/68 64/64/64
f 68/68/68 44/44/44 63/63/63
f 55/55/55 72/72/72 65/65/65 58/58/58
f 52/52/52 75/75/75 73/73/73 56/56/56
f 76/76/76 53/53/53 49/49/49 79/79/79
f 47/47/47 83/83/83 81/81/81 51/51/51
f 45/45/45 71/71/71 84/84/84 48/48/48
f 86/86/86 88/88/88 89/89/89
f 89/89/89 90/90/90 82/82/82
f 90/90/90 91/91/91 82/82/82
f 91/91/91 93/93/93 78/78/78
f 78/78/78 80/80/80 91/91/91
f 80/80/80 82/82/82 91/91/91
f 82/82/82 70/70/70 86/86/86
f 82/82/82 86/86/86 89/89/89
f 94/94/94 95/95/95 87/87/87
f 87/87/87 85/85/85 97/97/97
f 87/87/87 97/97/97 94/94/94
f 97/97/97 85/85/85 67/67/67
f 85/85/85 69/69/69 67/67/67
f 67/67/67 74/74/74 97/97/97
f 74/74/74 77/77/77 92/92/92
f 92/92/92 95/95/95 74/74/74
f 95/95/95 94/94/94 74/74/74
f 94/94/94 97/97/97 74/74/74
f 89/89/89 88/88/88 96/96/96
f 96/96/96 93/93/93 91/91/91
f 91/91/91 90/90/90 89/89/89
f 91/91/91 89/89/89 96/96/96
