# Rhino

mtllib opt2-1-flr0.mtl
usemtl floor0 (1)
v -200.60174560546875 -401.19869995117187 -40.427589416503906
v -277.12152099609375 -143.7713623046875 -40.427589416503906
v -353.64126586914062 113.65596771240234 -40.427589416503906
v 132.74140930175781 -302.11312866210937 -40.427589416503906
v 56.221649169921875 -44.685779571533203 -40.427589416503906
v -20.298114776611328 212.74156188964844 -40.427589416503906
vt 0 0
vt 0 0.5
vt 0 1
vt 1 0
vt 1 0.5
vt 1 1
vn 0 0 1
vn 0 0 1
vn 0 0 1
vn 0 0 1
vn 0 0 1
vn 0 0 1
f 5/5/5 2/2/2 1/1/1 4/4/4
f 6/6/6 3/3/3 2/2/2 5/5/5
