# Rhino

mtllib opt2-1Glass.mtl
usemtl _Translucent_Glass_Gray_1
v -28.156075267706377 34.217602959906088 -42.61188155093555
v -28.156075267706377 34.217602959906088 -42.61188155093555
v -28.156075267706377 34.217602959906088 -42.61188155093555
v -82.253575267706225 39.445936293239441 -42.61188155093555
v -82.253575267706225 39.445936293239441 -42.61188155093555
v -82.253575267706225 39.445936293239441 -42.61188155093555
v -82.253575267706225 39.445936293239441 -28.611906550935544
v -82.253575267706225 39.445936293239441 -28.611906550935544
v -82.253575267706225 39.445936293239441 -28.611906550935544
v -28.156075267706377 34.217602959906088 -28.611906550935544
v -28.156075267706377 34.217602959906088 -28.611906550935544
v -28.156075267706377 34.217602959906088 -28.611906550935544
v -20.098575267706259 -34.916730373427214 -42.61188155093555
v -20.098575267706259 -34.916730373427214 -42.61188155093555
v -20.098575267706259 -34.916730373427214 -42.61188155093555
v -47.937741934372902 -26.687647040093935 -42.61188155093555
v -47.937741934372902 -26.687647040093935 -42.61188155093555
v -47.937741934372902 -26.687647040093935 -42.61188155093555
v -20.098575267706259 -34.916730373427214 -28.611906550935544
v -20.098575267706259 -34.916730373427214 -28.611906550935544
v -20.098575267706259 -34.916730373427214 -28.611906550935544
v -47.937741934372902 -26.687647040093935 -28.611906550935544
v -47.937741934372902 -26.687647040093935 -28.611906550935544
v -47.937741934372902 -26.687647040093935 -28.611906550935544
v -37.456908601039608 -141.74106370676057 -42.61188155093555
v -37.456908601039608 -141.74106370676057 -42.61188155093555
v -37.456908601039608 -141.74106370676057 -42.61188155093555
v 20.603924732293837 -118.85473037342726 -42.61188155093555
v 20.603924732293837 -118.85473037342726 -42.61188155093555
v 20.603924732293837 -118.85473037342726 -42.61188155093555
v 20.603924732293837 -118.85473037342726 -28.611906550935544
v 20.603924732293837 -118.85473037342726 -28.611906550935544
v 20.603924732293837 -118.85473037342726 -28.611906550935544
v -37.456908601039608 -141.74106370676057 -28.611906550935544
v -37.456908601039608 -141.74106370676057 -28.611906550935544
v -37.456908601039608 -141.74106370676057 -28.611906550935544
v -44.319408601039562 -67.40798037342725 -42.61188155093555
v -44.319408601039562 -67.40798037342725 -42.61188155093555
v -44.319408601039562 -67.40798037342725 -42.61188155093555
v -5.0469086010395294 -65.957063706760579 -42.61188155093555
v -5.0469086010395294 -65.957063706760579 -42.61188155093555
v -5.0469086010395294 -65.957063706760579 -42.61188155093555
v -40.521075267706159 -108.55758870676058 -42.61188155093555
v -40.521075267706159 -108.55758870676058 -42.61188155093555
v -44.319408601039562 -67.40798037342725 -28.611906550935544
v -44.319408601039562 -67.40798037342725 -28.611906550935544
v -44.319408601039562 -67.40798037342725 -28.611906550935544
v -5.0469086010395294 -65.957063706760579 -28.611906550935544
v -5.0469086010395294 -65.957063706760579 -28.611906550935544
v -5.0469086010395294 -65.957063706760579 -28.611906550935544
vt 156.24200439453125 4.2000001566899758E-12
vt -728.625 2208.780029296875
vt 2301.409912109375 6.01272981057277E-12
vt 808.4310302734375 3.5178799977220176E-12
vt -124.38800048828125 2454.239990234375
vt -2387.10009765625 3.6842100550882328E-12
vt 808.4310302734375 168
vt 124.38800048828125 2454.239990234375
vt -2387.10009765625 168
vt 156.24200439453125 168
vt 2301.409912109375 168
vt 728.625 2208.780029296875
vt -584.43701171875 1386.0899658203125
vt -266.22198486328125 7.743169994078869E-11
vt 1466.1700439453125 2.2610600457911856E-12
vt -292.47000122070313 1576.1099853515625
vt -614.573974609375 7.743169994078869E-11
vt -1493.02001953125 0
vt -266.22198486328125 168
vt 1466.1700439453125 168
vt 584.43701171875 1386.0899658203125
vt -614.573974609375 168
vt 292.47000122070313 1576.1099853515625
vt -1493.02001953125 168
vt 37.394199371337891 3.9718701418112179E-12
vt -18.83329963684082 217.02200317382812
vt -216.49899291992187 3.9764901441086131E-12
vt 786.30401611328125 0
vt -764.97900390625 281.31298828125
vt 154.2550048828125 0
vt 786.30401611328125 168
vt 764.97900390625 281.31298828125
vt 154.2550048828125 168
vt 37.394199371337891 168
vt -216.49899291992187 168
vt 18.83329963684082 217.02200317382812
vt -194.57000732421875 1095.4000244140625
vt 85.3634033203125 1.9543899918567087E-12
vt -1112.2900390625 1.9585500755925356E-12
vt -651.20098876953125 977.54400634765625
vt -386.23300170898437 1.2012200045416477E-12
vt 859.72198486328125 1.0881700271761496E-12
vt -97.284896850585937 609.14599609375
vt -616.39398193359375 3.0243600592644304E-12
vt 85.3634033203125 168
vt -1112.2900390625 168
vt 194.57000732421875 1095.4000244140625
vt -386.23300170898437 168
vt 651.20098876953125 977.54400634765625
vt 859.72198486328125 168
vn 0.096190400421619415 0.99536293745040894 0
vn 0 0 -1
vn 0.99327695369720459 0.11576200276613235 0
vn 0.096190400421619415 0.99536293745040894 0
vn 0 0 -1
vn -0.88762080669403076 -0.4605749249458313 0
vn 0.096190400421619415 0.99536293745040894 0
vn 0 0 1
vn -0.88762080669403076 -0.4605749249458313 0
vn 0.096190400421619415 0.99536293745040894 0
vn 0.99327695369720459 0.11576200276613235 0
vn 0 0 1
vn 0 0 -1
vn -0.28347519040107727 -0.95897954702377319 0
vn 0.99327695369720459 0.11576200276613235 0
vn 0 0 -1
vn -0.28347519040107727 -0.95897954702377319 0
vn -0.88762080669403076 -0.4605749249458313 0
vn -0.28347519040107727 -0.95897954702377319 0
vn 0.99327695369720459 0.11576200276613235 0
vn 0 0 1
vn -0.28347519040107727 -0.95897954702377319 0
vn 0 0 1
vn -0.88762080669403076 -0.4605749249458313 0
vn 0.36671394109725952 -0.93033373355865479 0
vn 0 0 -1
vn -0.9957653284072876 -0.091931633651256561 0
vn 0.36671394109725952 -0.93033373355865479 0
vn 0 0 -1
vn 0.89978951215744019 0.43632423877716064 0
vn 0.36671394109725952 -0.93033373355865479 0
vn 0 0 1
vn 0.89978951215744019 0.43632423877716064 0
vn 0.36671394109725952 -0.93033373355865479 0
vn -0.9957653284072876 -0.091931633651256561 0
vn 0 0 1
vn 0 0 -1
vn -0.036920908838510513 0.99931818246841431 0
vn -0.9957653284072876 -0.091931633651256561 0
vn 0 0 -1
vn -0.036920908838510513 0.99931818246841431 0
vn 0.89978951215744019 0.43632423877716064 0
vn 0 0 -1
vn -0.9957653284072876 -0.091931633651256561 0
vn -0.036920908838510513 0.99931818246841431 0
vn -0.9957653284072876 -0.091931633651256561 0
vn 0 0 1
vn -0.036920908838510513 0.99931818246841431 0
vn 0 0 1
vn 0.89978951215744019 0.43632423877716064 0
f 1/1/1 4/4/4 7/7/7 10/10/10
f 13/13/13 16/16/16 5/5/5 2/2/2
f 17/17/17 14/14/14 19/19/19 22/22/22
f 11/11/11 20/20/20 15/15/15 3/3/3
f 8/8/8 23/23/23 21/21/21 12/12/12
f 6/6/6 18/18/18 24/24/24 9/9/9
f 25/25/25 28/28/28 31/31/31 34/34/34
f 37/37/37 40/40/40 43/43/43
f 29/29/29 26/26/26 43/43/43
f 29/29/29 43/43/43 40/40/40
f 41/41/41 38/38/38 45/45/45 48/48/48
f 44/44/44 27/27/27 35/35/35
f 35/35/35 46/46/46 39/39/39
f 35/35/35 39/39/39 44/44/44
f 32/32/32 49/49/49 47/47/47 36/36/36
f 30/30/30 42/42/42 50/50/50 33/33/33
