# Rhino

mtllib opt3-1Glass.mtl
usemtl _Translucent_Glass_Gray_1
v -28.872741934372847 56.565936293239446 -42.61188155093555
v -28.872741934372847 56.565936293239446 -26.532156550935554
v -73.32524193437294 55.156769626572753 -26.326239884268887
v -73.32524193437294 55.156769626572753 -42.61188155093555
v -38.16774193437292 -157.10173037342722 2.3880934490644563
v -38.16774193437292 -157.10173037342722 2.3880934490644563
v -47.751075267706177 -159.95664704009388 2.3880934490644563
v -101.13524193437289 54.275936293239425 2.3880934490644563
v -47.751075267706177 -159.95664704009388 61.38817678239775
v -47.751075267706177 -159.95664704009388 61.38817678239775
v -39.126075267706177 -157.38723037342723 61.38817678239775
v -39.126075267706177 -157.38723037342723 61.38817678239775
v -38.16774193437292 -157.10173037342722 61.38817678239775
v -38.16774193437292 -157.10173037342722 61.38817678239775
v -113.70024193437297 61.42926962657279 61.38817678239775
v -113.70024193437297 61.42926962657279 61.38817678239775
v -105.07524193437297 63.99843629323945 61.38817678239775
v -105.07524193437297 63.99843629323945 61.38817678239775
v -113.70024193437297 61.42926962657279 -42.61188155093555
v -104.11690860103948 64.284269626572751 -42.61188155093555
v -104.11690860103948 64.284269626572751 -42.61188155093555
v -104.11690860103948 64.284269626572751 61.38817678239775
v -104.11690860103948 64.284269626572751 61.38817678239775
v -103.97357526770628 63.805102959906066 -42.61188155093555
v -101.13524193437289 54.275936293239425 -42.61188155093555
v -79.446075267706334 65.780102959906088 -29.612906550935577
v -79.446075267706334 65.780102959906088 -29.612906550935577
v -25.87024193437302 76.195936293239441 8.0490101157311074
v -25.87024193437302 76.195936293239441 8.0490101157311074
v -25.87024193437302 76.195936293239441 8.0490101157311074
v -80.985241934372795 70.947602959906106 17.640510115731104
v -80.985241934372795 70.947602959906106 17.640510115731104
v -20.865241934372911 73.247602959906118 -29.612906550935577
v -47.832741934372883 -40.343147040093896 8.0490101157311074
v -48.711075267706214 -27.47031370676055 -57.611906550935544
v -48.711075267706214 -27.47031370676055 -44.61188155093555
v -74.495241934373013 -35.15131370676059 -57.611906550935544
v -74.495241934373013 -35.15131370676059 -44.61188155093555
v -41.898575267706214 -179.60348037342723 -9.6119065509355437
v -41.898575267706214 -179.60348037342723 -9.6119065509355437
v -41.898575267706214 -179.60348037342723 -9.6119065509355437
v -41.898575267706214 -179.60348037342723 -9.6119065509355437
v -41.898575267706214 -179.60348037342723 2.3880934490644563
v -41.898575267706214 -179.60348037342723 2.3880934490644563
v -41.898575267706214 -179.60348037342723 2.3880934490644563
v -47.60857526770625 -160.43589704009392 2.3880934490644563
v -47.60857526770625 -160.43589704009392 2.3880934490644563
v -47.60857526770625 -160.43589704009392 2.3880934490644563
v -47.60857526770625 -160.43589704009392 -9.6119065509355437
v -47.60857526770625 -160.43589704009392 -9.6119065509355437
v -32.31440860103968 -176.74848037342721 -9.6119065509355437
v -32.31440860103968 -176.74848037342721 -9.6119065509355437
v -32.31440860103968 -176.74848037342721 2.3880934490644563
v -32.31440860103968 -176.74848037342721 2.3880934490644563
v -41.898575267706214 -179.60348037342723 -42.61188155093555
v -41.898575267706214 -179.60348037342723 -42.61188155093555
v -32.31440860103968 -176.74848037342721 -42.61188155093555
v -47.60857526770625 -160.43589704009392 -42.61188155093555
v -38.16774193437292 -157.10173037342722 2.3880934490644563
v -38.16774193437292 -157.10173037342722 2.3880934490644563
v -47.751075267706177 -159.95664704009388 2.3880934490644563
v -47.751075267706177 -159.95664704009388 2.3880934490644563
v -47.751075267706177 -159.95664704009388 2.3880934490644563
v -110.71940860103945 51.420936293239407 2.3880934490644563
v -101.13524193437289 54.275936293239425 2.3880934490644563
v -47.751075267706177 -159.95664704009388 61.38817678239775
v -39.126075267706177 -157.38723037342723 61.38817678239775
v -38.16774193437292 -157.10173037342722 61.38817678239775
v -47.60857526770625 -160.43589704009392 61.38817678239775
v -105.07524193437297 63.99843629323945 61.38817678239775
v -104.11690860103948 64.284269626572751 61.38817678239775
v -79.446075267706334 65.780102959906088 -29.612906550935577
v -25.87024193437302 76.195936293239441 8.0490101157311074
v -25.87024193437302 76.195936293239441 8.0490101157311074
v -25.87024193437302 76.195936293239441 8.0490101157311074
v -80.985241934372795 70.947602959906106 17.640510115731104
v -20.865241934372911 73.247602959906118 -29.612906550935577
v 7.8630913989603251 -26.694147040093895 -29.612906550935577
v 7.8630913989603251 -26.694147040093895 -29.612906550935577
v 7.8630913989603251 -26.694147040093895 -29.612906550935577
v 13.278924732293792 -25.080897040093902 12.4076767823978
v 13.278924732293792 -25.080897040093902 12.4076767823978
v 13.278924732293792 -25.080897040093902 12.4076767823978
v 13.278924732293792 -25.080897040093902 12.4076767823978
v -47.832741934372883 -40.343147040093896 8.0490101157311074
v -47.832741934372883 -40.343147040093896 8.0490101157311074
v -47.832741934372883 -40.343147040093896 8.0490101157311074
v -47.832741934372883 -40.343147040093896 8.0490101157311074
v -47.832741934372883 -40.343147040093896 -29.612906550935577
v -47.832741934372883 -40.343147040093896 -29.612906550935577
v 7.8380913989604615 -26.701730373427239 -29.612906550935577
v 7.8380913989604615 -26.701730373427239 -29.612906550935577
v 7.8380913989604615 -26.701730373427239 -29.612906550935577
v -39.40940860103948 -130.56681370676054 -57.611906550935544
v -45.528575267706323 -132.38973037342723 -57.611906550935544
v -45.528575267706323 -132.38973037342723 -57.611906550935544
v -74.495241934373013 -35.15131370676059 -57.611906550935544
v -74.495241934373013 -35.15131370676059 -44.61188155093555
v -74.28107526770637 -35.87006370676059 -44.61188155093555
v -45.528575267706323 -132.38973037342723 -44.61188155093555
v -45.528575267706323 -132.38973037342723 -44.61188155093555
v -39.40940860103948 -130.56681370676054 -44.61188155093555
vt 282.22500610351562 1.7583299399825947E-11
vt 282.22500610351562 192.95700073242187
vt -251.468994140625 195.427001953125
vt -251.468994140625 2.2471800462109393E-11
vt -120 540
vt -246 540
vt -4.6443299206444522E-10 540
vt -2892.679931640625 540
vt -4.4246200453512685E-11 1248
vt -1.057030019069316E-10 246
vt -108 1248
vt -108 246
vt -120 1248
vt -246 1248
vt -5.8409797831782129E-11 3018
vt 4.518650037477201E-11 1248
vt -108 3018
vt 108 1248
vt 3.2453598836079678E-11 3.2132900507075846E-11
vt 120 3.2132900507075846E-11
vt -3018 3.1318801718693834E-11
vt 120 1248
vt -3018 1248
vt -3012 3.1034598502177602E-11
vt -2892.679931640625 3.1318801718693834E-11
vt -197.77099609375 -393.07901000976562
vt -186.19900512695312 -410.85400390625
vt 527.281005859375 89.050300598144531
vt 539.26800537109375 70.649398803710938
vt -1313.199951171875 21.656700134277344
vt -205.78900146484375 211.83599853515625
vt -1015.9500122070312 702.9110107421875
vt 597.43499755859375 -410.85400390625
vt 21.805599212646484 21.656700134277344
vt -1582.8499755859375 36
vt -1582.8499755859375 192
vt -1260 36
vt -1260 192
vt 9.5496900318070566E-12 396
vt 3.2014199624619266E-10 396
vt 3.2014199624619266E-10 396
vt 9.5496900318070566E-12 396
vt 3.2014199624619266E-10 8.6401996668428183E-12
vt -8.6401996668428183E-12 540
vt 3.2014199624619266E-10 540
vt 4.8385101480974413E-10 240
vt -240 540
vt -240 540
vt -240 396
vt -240 396
vt 120 396
vt 120 396
vt 120 1.0913899992082143E-11
vt 120 540
vt 3.3105598817861903E-10 0
vt -2.6375299513881068E-11 0
vt 120 1.946889914908323E-12
vt -240 0
vt 120 246
vt 120 246
vt 4.8385101480974413E-10 246
vt 5.5547400013011838E-10 246
vt -246 540
vt 5.4819798700478373E-10 2892.679931640625
vt 120 2892.679931640625
vt -246 1248
vt -108 246
vt -120 246
vt -240 1248
vt -108 3018
vt -120 3018
vt 1174 -504
vt 1125.7099609375 -98.508499145507813
vt 1048.8599853515625 85.912300109863281
vt -1313.199951171875 -28.156999588012695
vt 1231.3599853515625 98.242996215820313
vt 1081.0899658203125 -581.45599365234375
vt -25.203500747680664 -581.45599365234375
vt -101.322998046875 -398.77398681640625
vt 729.6619873046875 -504
vt -108.28900146484375 142.0050048828125
vt -408.16400146484375 695.05902099609375
vt 805.70697021484375 31.524900436401367
vt 805.0050048828125 31.550500869750977
vt 21.805599212646484 -28.156999588012695
vt -4 -24
vt -33.816699981689453 -24
vt -33.833599090576172 -24.026300430297852
vt -4 -504
vt -33.816699981689453 -504
vt 730.08197021484375 -504
vt 730.06097412109375 -504.03298950195312
vt 729.30902099609375 -504
vt -1336.6199951171875 36
vt -1260 36
vt 376.22000122070312 36
vt 1593.75 36
vt 1593.75 192
vt 1584.75 192
vt -1260 192
vt 376.22000122070312 192
vt -1336.6199951171875 192
vn -0.031677704304456711 0.99949812889099121 0
vn -0.031677704304456711 0.99949812889099121 0
vn -0.031677704304456711 0.99949812889099121 0
vn -0.031677704304456711 0.99949812889099121 0
vn 0.28549507260322571 -0.95838016271591187 0
vn 0.95838016271591187 0.28549507260322571 0
vn 0.28549507260322571 -0.95838016271591187 0
vn 0.95838016271591187 0.28549507260322571 0
vn 0.28549507260322571 -0.95838016271591187 0
vn 0 0 1
vn 0.28549507260322571 -0.95838016271591187 0
vn 0 0 1
vn 0.28549507260322571 -0.95838016271591187 0
vn 0.95838016271591187 0.28549507260322571 0
vn 0 0 1
vn -0.28549507260322571 0.95838016271591187 0
vn 0 0 1
vn -0.28549507260322571 0.95838016271591187 0
vn -0.28549507260322571 0.95838016271591187 0
vn -0.28549507260322571 0.95838016271591187 0
vn 0.95838016271591187 0.28549507260322571 0
vn -0.28549507260322571 0.95838016271591187 0
vn 0.95838016271591187 0.28549507260322571 0
vn 0.95838016271591187 0.28549507260322571 0
vn 0.95838016271591187 0.28549507260322571 0
vn -0.17588494718074799 0.98125571012496948 -0.078750975430011749
vn -0.1839180588722229 0.98071128129959106 -0.066178120672702789
vn -0.17588494718074799 0.98125571012496948 -0.078750975430011749
vn -0.1839180588722229 0.98071128129959106 -0.066178120672702789
vn 0.17119893431663513 -0.070559173822402954 0.98270660638809204
vn -0.17588494718074799 0.98125571012496948 -0.078750975430011749
vn 0.17119893431663513 -0.070559173822402954 0.98270660638809204
vn -0.1839180588722229 0.98071128129959106 -0.066178120672702789
vn 0.17119893431663513 -0.070559173822402954 0.98270660638809204
vn 0.28549507260322571 -0.95838016271591187 0
vn 0.28549507260322571 -0.95838016271591187 0
vn 0.28549507260322571 -0.95838016271591187 0
vn 0.28549507260322571 -0.95838016271591187 0
vn -0.95838016271591187 -0.28549507260322571 0
vn 0.28549507260322571 -0.95838016271591187 0
vn 0.28549507260322571 -0.95838016271591187 0
vn -0.95838016271591187 -0.28549507260322571 0
vn 0 0 1
vn -0.95838016271591187 -0.28549507260322571 0
vn 0.28549507260322571 -0.95838016271591187 0
vn 0 0 1
vn -0.95838016271591187 -0.28549507260322571 0
vn -0.95838016271591187 -0.28549507260322571 0
vn -0.95838016271591187 -0.28549507260322571 0
vn -0.95838016271591187 -0.28549507260322571 0
vn 0.28549507260322571 -0.95838016271591187 0
vn 0.28549507260322571 -0.95838016271591187 0
vn 0 0 1
vn 0.28549507260322571 -0.95838016271591187 0
vn 0.28549507260322571 -0.95838016271591187 0
vn -0.95838016271591187 -0.28549507260322571 0
vn 0.28549507260322571 -0.95838016271591187 0
vn -0.95838016271591187 -0.28549507260322571 0
vn 0 0 1
vn 0 0 1
vn 0 0 1
vn 0 0 1
vn -0.95838016271591187 -0.28549507260322571 0
vn 0 0 1
vn 0 0 1
vn -0.95838016271591187 -0.28549507260322571 0
vn 0 0 -1
vn 0 0 -1
vn -0.95838016271591187 -0.28549507260322571 0
vn 0 0 -1
vn 0 0 -1
vn 0.95838016271591187 0.28549507260322571 0
vn 0.95615923404693604 0.26917809247970581 0.11533702909946442
vn 0.90928387641906738 0.39022895693778992 -0.14465197920799255
vn -0.073348104953765869 0.030230306088924408 0.99684810638427734
vn 0.95838016271591187 0.28549507260322571 0
vn 0.95615923404693604 0.26917809247970581 0.11533702909946442
vn 0.95615923404693604 0.26917809247970581 0.11533702909946442
vn 0.90928387641906738 0.39022895693778992 -0.14465197920799255
vn 0.28549507260322571 -0.95838016271591187 0
vn 0.90928387641906738 0.39022895693778992 -0.14465197920799255
vn -0.073348104953765869 0.030230306088924408 0.99684810638427734
vn 0.25778591632843018 -0.96619266271591187 0.0042565786279737949
vn 0.28549507260322571 -0.95838016271591187 0
vn -0.073348104953765869 0.030230306088924408 0.99684810638427734
vn 0.95838016271591187 0.28549507260322571 0
vn 0.2553158700466156 -0.9668576717376709 0
vn 0.25778591632843018 -0.96619266271591187 0.0042565786279737949
vn 0.95838016271591187 0.28549507260322571 0
vn 0.2553158700466156 -0.9668576717376709 0
vn 0.2553158700466156 -0.9668576717376709 0
vn 0.25778591632843018 -0.96619266271591187 0.0042565786279737949
vn 0.28549507260322571 -0.95838016271591187 0
vn -0.28549507260322571 0.95838016271591187 0
vn -0.28549507260322571 0.95838016271591187 0
vn 0.95838016271591187 0.28549507260322571 0
vn 0.95838016271591187 0.28549507260322571 0
vn 0.95838016271591187 0.28549507260322571 0
vn 0.95838016271591187 0.28549507260322571 0
vn -0.28549507260322571 0.95838016271591187 0
vn 0.95838016271591187 0.28549507260322571 0
vn -0.28549507260322571 0.95838016271591187 0
f 1/1/1 4/4/4 3/3/3 2/2/2
f 7/7/7 11/11/11 9/9/9
f 13/13/13 7/7/7 5/5/5
f 13/13/13 11/11/11 7/7/7
f 15/15/15 10/10/10 12/12/12 17/17/17
f 16/16/16 18/18/18 19/19/19
f 19/19/19 22/22/22 20/20/20
f 19/19/19 18/18/18 22/22/22
f 14/14/14 8/8/8 23/23/23
f 23/23/23 8/8/8 21/21/21
f 24/24/24 8/8/8 25/25/25
f 24/24/24 21/21/21 8/8/8
f 8/8/8 14/14/14 6/6/6
f 26/26/26 31/31/31 28/28/28
f 27/27/27 29/29/29 33/33/33
f 30/30/30 32/32/32 34/34/34
f 36/36/36 38/38/38 37/37/37 35/35/35
f 39/39/39 44/44/44 47/47/47 49/49/49
f 45/45/45 40/40/40 51/51/51 54/54/54
f 52/52/52 41/41/41 55/55/55 57/57/57
f 56/56/56 42/42/42 50/50/50 58/58/58
f 43/43/43 53/53/53 46/46/46
f 53/53/53 59/59/59 61/61/61
f 53/53/53 61/61/61 46/46/46
f 64/64/64 62/62/62 60/60/60 65/65/65
f 48/48/48 69/69/69 66/66/66 63/63/63
f 68/68/68 67/67/67 70/70/70 71/71/71
f 73/73/73 78/78/78 77/77/77
f 79/79/79 74/74/74 81/81/81
f 82/82/82 75/75/75 85/85/85
f 89/89/89 72/72/72 76/76/76 86/86/86
f 90/90/90 91/91/91 87/87/87
f 88/88/88 92/92/92 83/83/83
f 80/80/80 84/84/84 93/93/93
f 94/94/94 95/95/95 100/100/100 102/102/102
f 96/96/96 97/97/97 99/99/99
f 97/97/97 98/98/98 99/99/99
f 99/99/99 101/101/101 96/96/96
